Coordinates
version=1
nRows=19
nColumns=36
inDegrees=yes

Units are S.I. units (second, meters, Newtons, ...)
If the header above contains a line with 'inDegrees', this indicates whether rotational values are in degrees (yes) or radians (no).

endheader
time	pelvis_tilt	pelvis_list	pelvis_rotation	pelvis_tx	pelvis_ty	pelvis_tz	hip_flexion_r	hip_adduction_r	hip_rotation_r	knee_angle_r	knee_angle_r_beta	ankle_angle_r	subtalar_angle_r	mtp_angle_r	hip_flexion_l	hip_adduction_l	hip_rotation_l	knee_angle_l	knee_angle_l_beta	ankle_angle_l	subtalar_angle_l	mtp_angle_l	lumbar_extension	lumbar_bending	lumbar_rotation	arm_flex_r	arm_add_r	arm_rot_r	elbow_flex_r	pro_sup_r	arm_flex_l	arm_add_l	arm_rot_l	elbow_flex_l	pro_sup_l
      1.47916670	    -33.23591515	     -0.25413102	      3.85039793	     -0.96341115	      1.18401031	     -0.08428048	     50.01619747	     -1.88567075	      2.49952956	     29.47606104	      0.51445432	      7.92879692	    -21.13867965	     -7.49999987	     51.82225970	      2.04238215	      5.69305979	     32.26695841	      0.56316466	      7.61301125	    -14.67365141	     -7.49999987	      1.37277056	      1.57657524	     -2.75394883	     60.99070973	     -8.00550042	     27.64176091	     52.96051787	     68.27293325	     68.16144185	     -4.63825810	     31.14945867	     43.11182514	     53.28505553
      1.48333330	    -33.26025439	     -0.19317485	      3.83587936	     -0.96424466	      1.18574809	     -0.08411227	     50.18023091	     -1.96653865	      2.46663564	     29.64402646	      0.51738587	      8.67505061	    -20.42362691	     -7.49999987	     52.12510285	      2.05358565	      5.77539970	     32.67180491	      0.57023057	      7.95933152	    -14.27037071	     -7.49999987	      0.72064847	      1.51461133	     -2.73754432	     60.45491060	     -8.23173695	     27.65667779	     53.03657899	     68.11259526	     67.78827470	     -4.92509998	     31.14263156	     43.40589816	     53.41045087
      1.48750000	    -33.74195605	     -0.45999148	      4.00478649	     -0.96631818	      1.17860126	     -0.08460568	     51.02891497	     -1.78915574	      2.76053506	     30.11659746	      0.52563379	      9.35162909	    -20.13267928	     -7.49999987	     53.21060540	      2.04760718	      5.96724858	     33.59151338	      0.58628251	      8.06881201	    -15.26957599	     -7.49999987	      0.79653782	      1.82951747	     -2.76843561	     60.13355890	     -8.54644915	     27.47892788	     52.76594641	     67.90281918	     67.37815761	     -4.85786000	     30.84200589	     43.41278191	     53.57227302
      1.49166670	    -33.69890853	     -0.62334775	      4.25326374	     -0.96424024	      1.17293209	     -0.08242828	     51.30300153	     -1.55630868	      3.23944518	     30.86600774	      0.53871346	     10.29760848	    -20.14552523	     -7.49999987	     53.83287403	      2.05707167	      6.06664453	     34.90621714	      0.60922842	      8.78937199	    -15.61573001	     -7.49999987	      0.19703034	      1.82397407	     -2.93862175	     59.38756957	     -8.87267279	     26.90858538	     53.64491407	     67.66732331	     66.74721253	     -5.15873585	     30.18466712	     44.64728175	     53.75524893
      1.49583330	    -34.37329822	     -0.89084418	      4.32467937	     -0.96214365	      1.17746612	     -0.08371977	     52.03070592	     -1.39414978	      3.29885430	     31.29862019	      0.54626397	     10.88419220	    -19.64847424	     -7.49999987	     54.77196588	      2.04832484	      6.37223730	     35.41297858	      0.61807307	      8.90284912	    -15.61284054	     -7.49999987	      0.85479246	      2.10685139	     -3.05401606	     58.29528688	     -8.96374225	     27.09287195	     52.98946349	     67.91979545	     65.73346706	     -5.30794802	     30.33052754	     44.03937226	     53.69718677
      1.50000000	    -34.50224031	     -0.94015278	      4.29964376	     -0.96077077	      1.17367824	     -0.08595247	     52.13557958	     -1.39735307	      3.26391327	     31.67881303	      0.55289959	     11.07004042	    -19.69200239	     -7.49999987	     55.00646950	      2.17829105	      6.72510645	     35.85309061	      0.62575448	      8.85958468	    -16.23245934	     -7.49999987	      0.70953613	      2.21043710	     -3.11937829	     57.07373278	     -9.04251414	     26.70374301	     53.09348638	     67.80267145	     64.42186127	     -5.60098544	     29.57039926	     44.76367936	     53.96415567
      1.50416670	    -34.49889732	     -1.06530953	      4.34674748	     -0.96358952	      1.17402234	     -0.08210257	     52.21255405	     -1.19678547	      3.47872265	     32.09404801	      0.56014681	     11.27829630	    -19.87110202	     -7.49999987	     55.24304424	      2.09772625	      6.99124861	     36.33606835	      0.63418403	      8.81631300	    -16.31747931	     -7.49999987	      0.14217349	      2.21683042	     -3.10607799	     56.30719413	     -9.08513133	     26.80741992	     52.84971752	     67.86594486	     63.82169616	     -5.83984843	     29.62253646	     44.62708624	     53.96673202
      1.50833330	    -34.82223605	     -1.24420805	      4.26693717	     -0.96328308	      1.17115564	     -0.08345229	     52.84670582	     -0.94159974	      3.69087652	     32.65701826	      0.56997249	     11.52204208	    -20.14046888	     -7.49999987	     55.94585877	      2.01417685	      7.28751288	     37.09559297	      0.64744024	      9.05290786	    -16.56758818	     -7.49999987	      0.08649789	      2.47031597	     -3.09080169	     55.46208198	     -9.07739335	     26.66825395	     52.43128046	     67.82262926	     62.74595205	     -6.20176831	     29.32904343	     45.00346971	     54.22412846
      1.51250000	    -34.88676182	     -1.32096549	      4.21827247	     -0.96433598	      1.17416613	     -0.08332822	     53.08790887	     -0.74142498	      3.92067316	     32.88062780	      0.57387522	     11.63439890	    -19.95342059	     -7.49999987	     56.30604026	      1.96230116	      7.48760187	     37.54946942	      0.65536187	      8.81546463	    -16.89957782	     -7.49999987	     -0.53187216	      2.60479400	     -3.01232142	     54.63671707	     -9.12581373	     26.44689517	     52.09842281	     67.91218332	     61.82688629	     -6.51871443	     28.85718756	     45.32179565	     54.40872105
      1.51666670	    -35.17641213	     -1.42366022	      4.10905386	     -0.96890107	      1.16582161	     -0.08225682	     54.10264310	     -0.46985930	      4.09988784	     33.78710295	      0.58969619	     12.22296528	    -20.12859193	     -7.49999987	     57.42274709	      1.85566581	      7.43777817	     38.65250603	      0.67461349	      9.14011480	    -17.33068979	     -7.49999987	     -0.90916383	      2.73778696	     -2.87298239	     54.13431017	     -9.21682887	     25.99802181	     51.99574120	     67.92084707	     61.24619833	     -6.71365698	     28.26326627	     45.69335790	     54.58234806
      1.52083330	    -35.70550624	     -1.48820466	      3.92501365	     -0.97110877	      1.16400034	     -0.08144523	     55.46740635	     -0.29932212	      4.18987096	     34.82634664	      0.60783442	     12.52124812	    -20.25305666	     -7.49999987	     58.70812426	      1.80468225	      7.60768358	     39.66016970	      0.69220054	      9.40064435	    -17.44779275	     -7.49999987	     -1.01068971	      2.77377758	     -2.77641084	     53.75233524	     -9.37804674	     25.96669685	     51.46349054	     67.81788501	     60.81260741	     -6.87828129	     28.11755945	     45.50942544	     54.80329205
      1.52500000	    -36.27586172	     -1.47019905	      3.73565368	     -0.97476970	      1.15645712	     -0.08160413	     57.14594565	     -0.17413022	      4.23534747	     36.51863586	      0.63737043	     13.45602072	    -20.17575722	     -7.49999987	     60.28151338	      1.83765771	      7.77934302	     41.09005555	      0.71715676	     10.28151458	    -17.35320619	     -7.49999987	     -0.91625596	      2.79022950	     -2.74559301	     53.44124331	     -9.55490767	     26.02661032	     51.17930513	     67.64541274	     60.43527786	     -7.17188503	     27.83642400	     45.34041727	     55.03181034
      1.52916670	    -36.74883556	     -1.52087931	      3.55747807	     -0.97602768	      1.15445131	     -0.07927573	     58.46764318	     -0.02825777	      4.12922882	     37.88730105	      0.66125815	     14.09202536	    -20.20241226	     -7.49999987	     61.39346262	      1.65713916	      7.70766721	     41.94696127	      0.73211259	     11.39799028	    -16.45925437	     -7.49999987	     -0.78095404	      2.80530621	     -2.62476544	     52.92324859	     -9.83578442	     26.15996425	     50.73128873	     67.64457004	     59.86221783	     -7.49892623	     27.73343400	     45.04320118	     55.15837100
      1.53333330	    -37.09540862	     -1.69374067	      3.45359840	     -0.98024174	      1.15256013	     -0.07814978	     59.45084073	      0.21829604	      3.93137746	     38.72831838	      0.67593667	     14.53516879	    -20.12470756	     -7.49999987	     62.40938447	      1.41539905	      7.75294220	     42.75081150	      0.74614242	     12.24913124	    -15.73850942	     -7.49999987	     -0.93666993	      2.95793310	     -2.52571067	     52.44286509	    -10.08476124	     26.14398482	     50.47350232	     67.42391153	     59.42584729	     -7.76641881	     27.62953246	     44.90893728	     55.36527214
      1.53750000	    -37.37845025	     -1.93650058	      3.46757068	     -0.98438797	      1.15162662	     -0.07769052	     60.35209752	      0.41393073	      3.76319467	     39.27669031	      0.68550757	     14.41803769	    -20.31659541	     -7.49999987	     63.35130044	      1.18451641	      7.70695491	     43.49945042	      0.75920863	     12.39725894	    -15.92396133	     -7.49999987	     -1.18487708	      3.16296703	     -2.51497515	     52.01501182	    -10.25340398	     26.05940205	     49.89648980	     67.28870647	     59.11616922	     -7.97288822	     27.50003276	     44.24618131	     55.50972547
      1.54166670	    -37.71269543	     -2.13523303	      3.40611078	     -0.99065399	      1.14753270	     -0.07663829	     61.49560564	      0.68741608	      3.81006934	     40.11082184	      0.70006591	     14.64413095	    -20.39144068	     -7.49999987	     64.59505632	      0.98236469	      7.71016975	     44.42691732	      0.77539598	     12.82561994	    -15.62302891	     -7.49999987	     -1.49160685	      3.25092108	     -2.40763761	     51.88860355	    -10.52012540	     26.18747569	     49.28711893	     67.56898331	     59.12607330	     -8.08529055	     27.47664791	     43.28653694	     55.54751087
      1.54583330	    -37.64767587	     -2.39941733	      3.58054472	     -0.98617458	      1.15163471	     -0.07948258	     61.35800922	      0.67804861	      3.66329061	     39.88564031	      0.69613575	     14.57170745	    -20.20592970	     -7.49999987	     64.72173026	      1.03643006	      8.00795196	     44.65706082	      0.77941275	     12.96552447	    -15.07395632	     -7.49999987	     -2.16807141	      3.71406433	     -2.49866519	     51.28529519	    -10.78904516	     25.97426556	     48.69748590	     67.77362255	     58.49964593	     -8.19601847	     27.34711472	     42.55881513	     55.46907924
      1.55000000	    -37.55313579	     -2.47237996	      3.59919670	     -0.98741371	      1.14944554	     -0.08082588	     61.29129706	      0.62371232	      3.74954299	     39.78047951	      0.69430035	     14.31788109	    -20.57419432	     -7.49999987	     64.82412219	      1.13149296	      8.02084465	     45.14953474	      0.78800804	     12.90499699	    -15.47132088	     -7.49999987	     -2.96831540	      4.00677759	     -2.56963256	     50.66064770	    -11.03360780	     25.69669060	     48.42822588	     67.51293373	     57.87935232	     -8.39960886	     27.08486664	     42.14561589	     55.58948564
      1.55416670	    -37.47755232	     -2.40257570	      3.60415194	     -0.98976477	      1.14903022	     -0.08185629	     61.69052055	      0.46868034	      3.67125291	     40.47060555	      0.70634532	     14.14554421	    -20.66558499	     -7.49999987	     65.17207295	      1.46997273	      8.18848384	     45.81421546	      0.79960890	     12.53118772	    -15.63979972	     -7.49999987	     -3.67473986	      4.08669129	     -2.48267587	     50.21739170	    -11.22546787	     25.31549871	     47.30103426	     67.38473662	     57.36123109	     -8.31349418	     26.69369561	     41.01918081	     55.70200740
